<?xml version="1.0" encoding="utf-8"?>
<!-- Generator: Adobe Illustrator 22.0.1, SVG Export Plug-In . SVG Version: 6.00 Build 0)  -->
<svg version="1.1" id="Livello_1" xmlns="http://www.w3.org/2000/svg" xmlns:xlink="http://www.w3.org/1999/xlink" x="0px" y="0px"
	 viewBox="0 0 283.5 283.5" style="enable-background:new 0 0 283.5 283.5;" xml:space="preserve">
<style type="text/css">
	.st0{fill:#C4C2C2;}
	.st1{fill:#FFFFFF;}
</style>
<path class="st0" d="M123.9,150.1V137c0-5.5,4.5-10,10-10H147c5.5,0,10,4.5,10,10v13.1c0,5.5-4.5,10-10,10h-13.1
	C128.4,160.1,123.9,155.6,123.9,150.1z"/>
<path class="st1" d="M150.1,148.8v4h-4v-3h-3v-3h-3l-2.3-2.3c-0.6,0.2-1.1,0.3-1.7,0.3c-3.3,0-6-2.7-6-6s2.7-6,6-6s6,2.7,6,6
	c0,0.6-0.1,1.2-0.3,1.7L150.1,148.8 M135.1,135.8c-1.1,0-2,0.9-2,2s0.9,2,2,2s2-0.9,2-2S136.2,135.8,135.1,135.8z"/>
</svg>
